<?xml version="1.0" encoding="utf-8"?>
<svg xmlns="http://www.w3.org/2000/svg" viewBox="0 0 108.9 102.8" xml:space="preserve">
  <path d="M37.3 63c-.4.5-1.1.7-1.8.7-.6 0-1.3-.3-1.7-.7L22.6 51.9c-1-.9-1-2.5-.1-3.5s2.4-1.1 3.5-.2c.1 0 .1.1.1.1l9.4 9.4 27.2-27.2c.9-1 2.5-1 3.5 0 .9 1 .9 2.5 0 3.5L37.3 63zm21.5-8.4c-1.3 0-2.4-1.1-2.4-2.4 0-.7.2-1.3.7-1.7l17.8-17.8c.9-.9 2.4-.9 3.4 0 .9.9.9 2.4 0 3.4L60.5 53.9c-.4.4-1 .7-1.7.7M80.7 60l-7 7c-.9.9-2.4 1-3.4.1-1-1-1-2.5-.1-3.5l7-7c.9-.9 2.4-.9 3.4 0 1 1 1 2.5.1 3.4m0-13.1L67.1 60.4c-.4.4-1 .7-1.7.7s-1.2-.3-1.7-.7c-.9-.9-.9-2.4 0-3.4l13.5-13.6c.9-.9 2.4-.9 3.4 0 1 1 1 2.6.1 3.5" fill="#212121"/>
</svg>
