<svg xmlns="http://www.w3.org/2000/svg" viewBox="0 0 202 337"><defs><clipPath id="cookie-homepage_svg__clip-path"><path d="M182.1 70.06c18 1.58 33.71 2.81 57.56 31.54s38 83.25 17.87 125.06-86 59.38-119.08 49.16-65.26-28.3-77.45-71.31c-13-46 8.31-89.4 30.94-111.33 22.43-21.73 58.49-25.89 90.17-23.12" style="fill: none;"></path></clipPath><style>.cookie-homepage_svg__cls-7{fill:#e08954}.cookie-homepage_svg__cls-8{fill:#db754d}.cookie-homepage_svg__cls-12{fill:#8e2a29}.cookie-homepage_svg__cls-13{fill:#e7c184}.cookie-homepage_svg__cls-14{fill:#d87b40}.cookie-homepage_svg__cls-15{fill:#86201d}.cookie-homepage_svg__cls-18{fill:#fff}.cookie-homepage_svg__cls-19{fill:#2b2b2b}</style></defs><g style="isolation: isolate;"><path d="M202.38.09 202 335s-81-49-80-167C123 53.15 202.38.09 202.38.09Z" class="cookie-homepage_svg__background" style="fill: rgb(181, 228, 229);"></path><path d="M89.5 219.5s-19.35 14.86-41 16c-19 1-50-28-43-42" class="cookie-homepage_svg__arm" style="stroke-width: 2.55px; stroke: rgb(53, 52, 53); stroke-linecap: round; stroke-miterlimit: 10; fill: none;"></path><g class="cookie-homepage_svg__body"><path d="M182.1 70.06c18 1.58 33.71 2.81 57.56 31.54s38 83.25 17.87 125.06-86 59.38-119.08 49.16-65.26-28.3-77.45-71.31c-13-46 8.31-89.4 30.94-111.33 22.43-21.73 58.49-25.89 90.17-23.12" style="fill: rgb(229, 160, 92);"></path><g style="clip-path: url(&quot;#cookie-homepage_svg__clip-path&quot;);"><path d="M186 70.41c-6.17 2.09-13.34 4.64-21 7.7a94.42 94.42 0 0 1 36.43 24 8 8 0 0 1 4.69-1.57h.2a5.61 5.61 0 0 1 .6 0c2.22 0 9.71.64 9.57 9.26a7.45 7.45 0 0 1-3.82 6.71 163 163 0 0 1 11.45 19.45 288.39 288.39 0 0 1 26.34-18.42 104.72 104.72 0 0 0-10.75-15.88C217.54 75 202.41 72 186 70.41M74.44 233.62c15.35 22.29 38.39 34.05 62.11 41.6a121.91 121.91 0 0 0 17.72-3.22c.2-4.27.54-9.25 1.1-14.74h-1.45c-1.94 2.54-5.4 3.48-8.34 3.48-2.78 0-5.1-.83-5.24-1.95l.43-.05a6.43 6.43 0 0 1-3.59-2.49c-25.39-3.25-47.68-13.72-62.74-22.63" class="cookie-homepage_svg__cls-7"></path><path d="M154.27 272a121.91 121.91 0 0 1-17.72 3.21l1.9.6a67.18 67.18 0 0 0 15.6 2.67c0-1.91.11-4.08.22-6.48" class="cookie-homepage_svg__cls-8"></path><path d="M138.12 71.53c-17.51 3.11-33.9 9.74-46.19 21.65C74.07 110.48 57 141.16 57 175.93a104.18 104.18 0 0 0 3.27 26c1.32-12.73 5.9-30.64 17-55.46 5.94-13.26 15.61-24.57 27.07-34.19-4.14-4.4.46-13.65 7.33-13.65h.8a10.71 10.71 0 0 1 7.08 2.44c14.82-9.7 31-17.2 45.36-22.91a122.66 122.66 0 0 0-26.83-6.58" style="fill: rgb(242, 195, 119);"></path><path d="M165.05 69.3a155.29 155.29 0 0 0-26.93 2.23A122.66 122.66 0 0 1 165 78.11c7.69-3.06 14.86-5.61 21-7.7l-3.88-.35c-5.58-.49-11.3-.76-17-.76" style="fill: rgb(239, 179, 112);"></path><path d="M224.07 135.9c-8.87 6.9-18.92 15.39-29.92 25.75-26.88 25.3-35.85 67.2-38.78 95.62a109.61 109.61 0 0 0 20.28-2.33 113.63 113.63 0 0 0 42.59-18.55 68.46 68.46 0 0 0 17.83-35.77 13.31 13.31 0 0 1-4.48.76c-2.77 0-5.09-.84-5.23-1.95a4 4 0 0 0 .43-.06c-8.73-2.64-3.79-15.43 4.29-15.43h.8a12 12 0 0 1 5.32 1.21c-.32-16.15-5.1-33-13.13-49.23" class="cookie-homepage_svg__cls-7"></path><path d="M218.24 236.39a113.63 113.63 0 0 1-42.59 18.55 109.61 109.61 0 0 1-20.28 2.33c-.56 5.49-.9 10.47-1.1 14.74 17.41-4.48 35.87-13.08 53.94-26.68a79.43 79.43 0 0 0 10-8.94" class="cookie-homepage_svg__cls-8"></path><path d="M266.5 169.44s-11.42 40.81-48.26 66.95a79.43 79.43 0 0 1-10 8.94c-18.07 13.6-36.53 22.2-53.94 26.68-.11 2.4-.18 4.57-.22 6.48 1.88.11 3.82.17 5.79.17 34.66 0 81.32-18 97.69-52 6.71-14 9.61-29.34 9.6-44.71 0-4.18-.22-8.36-.63-12.51" style="fill: rgb(214, 100, 70);"></path></g><path d="M212.54 103.23c5.66 4.91.36 16-10.68 12.72s-.58-22.49 10.68-12.72" class="cookie-homepage_svg__cls-12"></path><path d="M201.94 104.65c3.65-.75-1.31 5.65-2.91 4.41s1.27-3.62 2.09-4Z" class="cookie-homepage_svg__cls-13"></path><path d="M211.44 114.75a9.57 9.57 0 0 1-5.74 1.79 13.82 13.82 0 0 1-3.84-.59h-.08l-.43.06c.14 1.11 2.46 1.94 5.23 1.94a12.27 12.27 0 0 0 6-1.48l-1.18-1.7" class="cookie-homepage_svg__cls-14"></path><path d="M206.27 100.5a8.19 8.19 0 0 1 4.92 8.76c-.7 5-7.6 6.39-9.4 6.67h.08a13.82 13.82 0 0 0 3.84.59 9.57 9.57 0 0 0 5.74-1.79c3.87-2.84 4.68-8.41 1.1-11.52a10 10 0 0 0-6.27-2.73" class="cookie-homepage_svg__cls-15"></path><path d="M151.53 246.08c5.66 4.91.37 16-10.68 12.72s-.58-22.49 10.68-12.72" class="cookie-homepage_svg__cls-12"></path><path d="M140.93 247.5c3.66-.75-1.31 5.65-2.91 4.41s1.28-3.62 2.09-4Z" class="cookie-homepage_svg__cls-13"></path><path d="M145.86 243.33h-.6a10 10 0 0 1 6.27 2.74c3.45 3 2.83 8.28-.7 11.21h3.09a7.76 7.76 0 0 0 1.51-4.71c.14-8.63-7.35-9.26-9.57-9.26" class="cookie-homepage_svg__cls-14"></path><path d="M150.83 257.29a9.44 9.44 0 0 1-6.13 2.09 13.8 13.8 0 0 1-3.85-.58h-.08l-.43.05c.14 1.12 2.46 1.95 5.24 1.95 2.94 0 6.4-.94 8.34-3.48h-3.09" style="fill: rgb(212, 105, 59);"></path><path d="M145.26 243.34a8.18 8.18 0 0 1 4.92 8.75c-.7 5-7.6 6.39-9.4 6.68h.08a13.8 13.8 0 0 0 3.85.58 9.44 9.44 0 0 0 6.13-2.09c3.53-2.93 4.15-8.21.7-11.21a10 10 0 0 0-6.27-2.74" class="cookie-homepage_svg__cls-15"></path><path d="M95.66 192.53c5.66 4.91.37 15.95-10.67 12.72s-.59-22.49 10.67-12.72" class="cookie-homepage_svg__cls-12"></path><path d="M85.06 194c3.66-.75-1.3 5.65-2.9 4.41s1.27-3.63 2.09-4Z" class="cookie-homepage_svg__cls-13"></path><path d="M90 189.78h-.6a10 10 0 0 1 6.26 2.74c5 4.3 1.52 13.3-6.83 13.3a13.68 13.68 0 0 1-3.84-.58h-.09a4.06 4.06 0 0 1-.42.06c.14 1.12 2.45 1.95 5.23 1.95 4.32 0 9.76-2 9.86-8.19.13-8.63-7.36-9.27-9.58-9.26" class="cookie-homepage_svg__cls-14"></path><path d="M89.4 189.79a8.21 8.21 0 0 1 4.93 8.76c-.71 5-7.61 6.39-9.41 6.67h.09a13.68 13.68 0 0 0 3.84.58c8.35 0 11.79-9 6.83-13.3a10 10 0 0 0-6.26-2.74" class="cookie-homepage_svg__cls-15"></path><path d="M118.18 101.33c5.65 4.91.36 16-10.68 12.72s-.58-22.49 10.68-12.72" class="cookie-homepage_svg__cls-12"></path><path d="M107.57 102.75c3.66-.75-1.3 5.65-2.9 4.41s1.27-3.63 2.09-4Z" class="cookie-homepage_svg__cls-13"></path><path d="m119.59 101-1 .67c4.38 4.42.9 12.94-7.22 12.94a13.73 13.73 0 0 1-3.84-.58h-.08c-.28 0-.43.06-.43.06.14 1.12 2.46 2 5.23 2 4.32 0 9.76-2 9.86-8.19 0-3.32-1-5.45-2.49-6.82" class="cookie-homepage_svg__cls-14"></path><path d="M112.51 98.58h-.6a10 10 0 0 1 6.27 2.74l.38.36 1-.67a10.71 10.71 0 0 0-7.08-2.44" style="fill: rgb(229, 150, 83);"></path><path d="M111.91 98.59a8.19 8.19 0 0 1 4.93 8.75c-.7 5-7.61 6.39-9.4 6.67h.08a13.73 13.73 0 0 0 3.84.58c8.12 0 11.6-8.52 7.22-12.94l-.38-.36a10 10 0 0 0-6.27-2.74" class="cookie-homepage_svg__cls-15"></path><path d="M173.05 137.38c10.32-3.41 16.6 2.62 14 7s-5.49.45-10.76 1.78-6.88 6.17-11.3 5.2c-5.99-1.29-3.99-10 8.06-13.98Z" class="cookie-homepage_svg__cls-18"></path><circle cx="175.14" cy="143.57" r="3.17" class="cookie-homepage_svg__cls-19"></circle><path d="M122.8 157.81c10.32-3.4 16.6 2.62 14 7s-6.05 1.06-11.32 2.39-6.32 5.56-10.74 4.59c-5.96-1.29-4.01-9.99 8.06-13.98Z" class="cookie-homepage_svg__cls-18"></path><circle cx="124.88" cy="164" r="3.17" class="cookie-homepage_svg__cls-19"></circle><path d="M158.93 129a4.37 4.37 0 0 1 .55-.32l.14-.06c.15-.07-.28.1-.12.05l.32-.11.29-.07h.14s.3-.05 0 0 .09 0 .16 0h.78s-.34-.05-.14 0a4.31 4.31 0 0 1 .62.15 1.21 1.21 0 0 1 .32.11l-.12-.05.13.07a4.21 4.21 0 0 1 .57.36 1.37 1.37 0 0 0 1 .14 1.41 1.41 0 0 0 .81-.63 1.35 1.35 0 0 0 .13-1 1.57 1.57 0 0 0-.62-.82 5.74 5.74 0 0 0-6.42-.08 1.4 1.4 0 0 0-.49 1.86 1.37 1.37 0 0 0 1.86.48Zm-41.25 20.25a4.41 4.41 0 0 1 0-.73v.36a4.77 4.77 0 0 1 .31-1.12l-.14.33a4.82 4.82 0 0 1 .6-1l-.22.27a4.74 4.74 0 0 1 .78-.77l-.27.21a4.19 4.19 0 0 1 .89-.53l-.33.14.17-.07a1.5 1.5 0 0 0 .82-.62 1.37 1.37 0 0 0-1.54-2 5.89 5.89 0 0 0-2.85 2.27 5.55 5.55 0 0 0-.92 3.26 1.36 1.36 0 0 0 2.72 0Z" class="cookie-homepage_svg__cls-19"></path><path d="M149 157.6c2.67-1.35 2.66-3.58 4.89-3.59s1.37 4.9-3.08 7.15-8-.4-7.6-1.74c.71-2.12 3.13-.42 5.79-1.82Z" class="cookie-homepage_svg__cls-18"></path><path d="M249.3 150.12s4.71 33.4-7.44 43C230.19 202.36 196 175 200 195" style="stroke-width: 2.38px; stroke: rgb(53, 52, 53); stroke-linecap: round; stroke-miterlimit: 10; fill: none;"></path><path d="M183.3 69.18s21.76 4 25 5.18c0 0-12 13.89-24.26 15.13s-14.52-4-22-.72-19.94 8.71-30.48 7.11-21.54-1.95-28.27 3.06 2.36-6.16 9.7-12 60.14-18.48 70.31-17.76Z" style="fill: rgb(219, 83, 39); mix-blend-mode: multiply; opacity: 0.29;"></path><path d="M109.1 85.17s-12.77 16-3 11.09c7.73-3.91 12.31-6 32.27-5.38 15 .43 33.48-17.78 33.48-17.78Z" style="fill: rgb(87, 117, 141);"></path><path d="M183.3 69.18s3.21-28.85-26.3-24.64c-31.59 4.51-55.93 34.38-53.41 40.26s22.84-1.1 49.82-2.55c22.17-1.2 29.89-13.07 29.89-13.07Z" style="fill: rgb(64, 91, 124);"></path><path d="M153.39 82.25c-27 1.45-47.31 8.42-49.82 2.55a3.8 3.8 0 0 1 0-2.37c9.18 1.75 36-4.94 60.09-22.23 15.41-11.07 2.5-14.25-10.26-15 1.18-.24 2.36-.46 3.56-.63 29.53-4.21 26.32 24.64 26.32 24.64s-7.7 11.84-29.89 13.04Z" style="fill: rgb(49, 77, 104);"></path></g></g></svg>
