<svg xmlns="http://www.w3.org/2000/svg" fill="none" viewBox="0 0 90 90">
	<g clip-path="url(#ax-pencil-thumbup_svg__a)">
		<path fill="#FFB640"
			  d="m45.427 20.296 2.372 1.327-2.372 1.328-1.3 2.423-1.3-2.423-2.388-1.328 2.388-1.327 1.3-2.423 1.3 2.423Zm21.95 33.057 2.372 1.328-2.372 1.328-1.3 2.422-1.3-2.422-2.372-1.328 2.372-1.328 1.3-2.44 1.3 2.44Zm-44.469-.58 4.354 2.422-4.354 2.44-2.388 4.448-2.372-4.448-4.354-2.44 4.354-2.422 2.372-4.448 2.388 4.447Z"></path>
		<path fill="#F2A67A"
			  d="M63.38 40.193s.033.067.082.15c.747 1.278.617 2.24-.488 3.22-.357.315-.568.63-.568 1.128 0 .265-.098.547-.147.813-.195.896-.715 1.494-1.608 1.61a35.019 35.019 0 0 1-3.493.298c-3.25.166-6.483-.182-9.716-.564-.39-.05-.764-.083-1.154-.116-.52-.05-.73-.282-.747-.83V35.065c0-.497.13-.813.634-.929.552-.133.877-.547 1.088-1.045 1.04-2.39 2.746-4.182 4.793-5.66 1.414-1.028 2.096-2.373 2.096-4.132 0-1.36.552-1.974 1.722-2.024.666-.033 1.089.299 1.381.88.748 1.51.78 3.053.13 4.596-.47 1.095-.958 2.174-1.413 3.286-.39.946-.13 1.328.86 1.328 1.447 0 2.893-.034 4.339 0 .536 0 1.088.15 1.608.298 1.333.415 2.08 1.793 1.511 3.104-.422.962-.47 1.759.098 2.655.422.68.211 1.394-.309 1.975-.211.249-.422.498-.65.78l-.049.016Z"></path>
		<path fill="#1C4B6B"
			  d="M40.13 40.509v-5.576c0-.598.163-.747.748-.764h3.233c.569 0 .747.2.747.764v11.135c0 .598-.178.78-.78.78h-3.184c-.617 0-.764-.166-.764-.797v-5.576.034Z"></path>
		<path fill="#FFCD97"
			  d="M44.127 75.657c15.703 0 28.433-1.486 28.433-3.319S59.83 69.02 44.127 69.02s-28.433 1.486-28.433 3.32c0 1.832 12.73 3.319 28.433 3.319Z"></path>
		<path fill="#F2A67A"
			  d="M24.42 25.706s-3.413-4.182-4.534-4.912c-4.419-2.888-9.488 2.671-6.97 6.704 1.073 1.71 4.533 4.912 4.533 4.912l6.97-6.704Z"></path>
		<path fill="#F27B69"
			  d="M12.916 27.498c-1.397-2.24-.455-4.962 1.43-6.422 0 1.095-1.739 1.626 2.827 6.571 1.007 1.096 2.356.283 2.616 1.228l-2.356 3.535s-3.46-3.203-4.533-4.912h.016Z"></path>
		<path fill="#F2A67A"
			  d="M50.919 53.768s4.322 10.04 3.103 11.219c-1.219 1.178-10.772-3.834-10.772-3.834l.26-7.02 7.409-.348v-.017Z"></path>
		<path fill="#F27B69"
			  d="M51.975 64.92c-3.185-.863-8.725-3.767-8.725-3.767l.179-4.646 9.017 7.169s-.309.663-.455 1.244h-.016Z"></path>
		<path fill="#7BBAB8" d="m20.52 26.038 26.84 29.124 3.754-1.178-26.84-29.125-3.754 1.179Z"></path>
		<path fill="#4B8392" d="m17.977 28.502 26.838 29.121 2.556-2.457-26.84-29.121-2.554 2.457Z"></path>
		<path fill="#1C4B6B" d="m16.588 32.244 26.84 29.125 1.381-3.75-26.84-29.125-1.381 3.75Z"></path>
		<path fill="#1C4B6B"
			  d="m22.29 22.719 1.983 2.14-3.753 1.179-2.551 2.456-1.381 3.75-1.966-2.157 1.365-3.734 2.567-2.456 3.737-1.178Z"></path>
		<path fill="#FFCD97"
			  d="m23.022 23.515.52.548-3.753 1.178-2.55 2.456-1.366 3.75-.52-.564 1.365-3.75 2.567-2.456 3.737-1.162Z"></path>
		<path fill="#1C4B6B"
			  d="M54.006 64.987c-.423.398-1.804.083-3.461-.515.049-1.029.227-2.024.699-2.472.6-.581 1.624-.664 2.453-.631.487 1.742.731 3.203.309 3.618Z"></path>
	</g>
	<defs>
		<clipPath id="ax-pencil-thumbup_svg__a">
			<path fill="#fff" d="M0 0h90v90H0z"></path>
		</clipPath>
	</defs>
</svg>
