<svg xmlns="http://www.w3.org/2000/svg" viewBox="0 0 91 90" fill="none"><path fill="#FFEDCC" d="M8.837 75.404c18.457 18.603 47.442 20.342 72.837-6.336 25.41-26.678-5.492-63.12-41.35-53.486C4.466 25.216-9.035 57.386 8.837 75.404Z"></path><path fill="#FFCD97" d="M45.1 75.355c15.704 0 28.433-1.455 28.433-3.25 0-1.794-12.73-3.249-28.432-3.249-15.703 0-28.433 1.455-28.433 3.25 0 1.794 12.73 3.25 28.433 3.25Z"></path><path fill="#7BBAB8" d="M71.632 39.644a14.06 14.06 0 0 0 5.427-8.335c.309-1.365-1.251-2.372-2.372-1.544l-7.214 5.33a2.446 2.446 0 0 1-2.42.276l-5.963-2.6a2.443 2.443 0 0 1-1.447-1.966l-.73-6.466a2.463 2.463 0 0 1 .974-2.242l7.214-5.33c1.121-.828.617-2.599-.78-2.713a14.135 14.135 0 0 0-9.797 2.909c-4.68 3.607-6.499 9.667-5.004 15.093-.065.05-.13.082-.179.114l-28.27 20.862a5.037 5.037 0 0 0-1.056 7.05 5.037 5.037 0 0 0 7.051 1.057l28.27-20.861s.114-.082.163-.13c4.825 3.103 11.26 3.103 16.133-.504ZM23.053 57.84c-.406-.553-.292-1.333.26-1.722.553-.39 1.332-.293 1.722.26.39.552.293 1.332-.26 1.722-.552.39-1.332.292-1.722-.26Z"></path><path fill="#4B8392" d="m67.294 33.616 4.728-3.493c.488-.358.748-.942.683-1.544l-.666-5.832a1.7 1.7 0 0 0-1.008-1.365l-5.394-2.356a1.708 1.708 0 0 0-1.69.195l-4.727 3.493a1.686 1.686 0 0 0-.683 1.544l.666 5.832a1.7 1.7 0 0 0 1.008 1.365l5.394 2.356a1.708 1.708 0 0 0 1.69-.195Z"></path></svg>